<svg data-v-423bf9ae="" xmlns="http://www.w3.org/2000/svg" viewBox="0 0 292.3014356780644 60" class="font"><!----><!----><!----><g data-v-423bf9ae="" id="6578c3be-6b0b-4bb6-979e-c2b538c9ade9" fill="black" transform="matrix(6.109979823280842,0,0,6.109979823280842,-1.527492198538937,-11.670061748471603)"><path d="M3.82 1.93L3.82 1.93L3.82 1.93Q5.87 1.93 6.41 3.21L6.41 3.21L6.41 3.21Q6.56 3.53 6.56 3.63L6.56 3.63L5.69 3.63L5.69 3.89L6.62 3.89L6.62 3.88L6.62 3.88Q6.62 3.81 6.56 3.63L6.56 3.63L8.13 3.63L8.13 3.89L6.64 3.89L6.64 3.91L6.64 3.91Q6.75 4.46 6.80 5.09L6.80 5.09L6.80 5.09Q6.80 5.13 5.00 5.22L5.00 5.22L5.00 5.21L5.00 5.21Q5.00 3.58 3.88 3.58L3.88 3.58L3.69 3.58L3.69 3.58Q2.85 3.58 2.67 4.29L2.67 4.29L2.67 4.29Q2.52 4.89 2.52 5.87L2.52 5.87L2.52 7.20L2.50 7.40L1.88 7.40L1.88 7.71L2.50 7.71L2.50 10.08L5.14 10.08L5.14 7.62L6.65 7.62L6.65 10.08L5.81 10.08L5.81 11.60L4.05 11.60L4.05 11.73L2.69 11.73L2.69 11.60L1.30 11.60L1.30 10.84L2.22 10.84L2.22 10.51L0.84 10.51L0.84 9.39L0.25 9.39L0.25 8.01L0.56 8.01L0.56 8.01Q0.54 7.15 0.54 6.66L0.54 6.66L0.54 6.66Q0.54 4.42 0.76 3.84L0.76 3.84L0.76 3.84Q0.96 3.17 1.42 2.69L1.42 2.69L1.42 2.69Q2.23 1.93 3.82 1.93ZM2.63 9.59L2.63 9.59L2.71 9.59L2.71 9.93L2.91 9.93L2.91 10.04L2.63 10.04L2.63 10.04Q2.60 10.04 2.60 10.00L2.60 10.00L2.60 9.63L2.60 9.63Q2.60 9.59 2.63 9.59ZM4.69 9.60L4.69 9.59L4.79 9.59L4.79 9.59Q4.87 9.66 4.87 9.72L4.87 9.72L4.87 9.72Q4.89 9.72 4.99 9.59L4.99 9.59L5.07 9.59L5.07 9.63L5.07 9.63Q4.96 9.78 4.96 9.84L4.96 9.84L4.96 9.84Q4.98 9.84 5.09 10.01L5.09 10.01L5.09 10.04L4.99 10.04L4.87 9.91L4.87 9.91Q4.81 10.02 4.78 10.04L4.78 10.04L4.68 10.04L4.68 10.04Q4.71 9.97 4.83 9.80L4.83 9.80L4.69 9.60ZM6.04 10.19L6.04 10.19L6.04 10.19Q6.21 10.23 6.21 10.28L6.21 10.28L6.21 10.35L6.14 10.35L6.08 10.28L6.01 10.28L6.01 10.28Q5.97 10.29 5.97 10.32L5.97 10.32L5.97 10.35L5.97 10.35Q6.23 10.40 6.23 10.46L6.23 10.46L6.23 10.51L6.23 10.51Q6.23 10.64 6.08 10.64L6.08 10.64L6.01 10.64L6.01 10.64Q5.92 10.64 5.87 10.55L5.87 10.55L5.87 10.48L5.96 10.48L5.96 10.48Q5.96 10.56 6.06 10.56L6.06 10.56L6.08 10.56L6.08 10.56Q6.10 10.56 6.13 10.51L6.13 10.51L6.13 10.51Q6.13 10.49 5.89 10.40L5.89 10.40L5.88 10.36L5.88 10.28L5.88 10.28Q5.88 10.23 6.04 10.19ZM7.40 6.64L7.40 1.96L9.34 1.96L9.34 5.85L11.29 5.85L11.29 1.96L12.93 1.96L12.93 7.51L12.26 7.51L12.26 7.75L12.93 7.75L12.93 11.73L11.32 11.73L11.32 11.73Q11.29 11.73 11.29 11.70L11.29 11.70L11.29 7.48L9.34 7.48L9.34 11.70L9.34 11.70Q9.34 11.73 9.30 11.73L9.30 11.73L7.68 11.73L7.68 6.64L7.40 6.64ZM12.93 7.75L12.93 7.51L13.80 7.51L13.80 7.75L12.93 7.75ZM13.78 8.85L13.78 1.91L15.73 1.91L15.73 5.94L15.35 5.94L15.35 10.10L18.25 10.10L18.25 10.97L17.68 10.97L17.68 11.17L18.25 11.17L18.25 11.73L16.37 11.73L16.37 11.58L13.79 11.58L13.79 11.58Q13.78 11.42 13.78 11.33L13.78 11.33L13.78 9.14L14.27 9.14L14.27 8.85L13.78 8.85ZM18.25 11.17L18.25 10.97L18.96 10.97L18.96 11.17L18.25 11.17ZM22.75 1.95L22.75 1.95L22.75 1.95Q24.86 1.95 25.52 3.42L25.52 3.42L25.52 3.42Q25.89 4.14 25.89 6.19L25.89 6.19L25.89 6.23L25.17 6.23L25.17 6.56L25.89 6.56L25.89 10.10L25.42 10.10L25.42 11.37L24.47 11.37L24.47 11.73L21.14 11.73L21.14 11.37L20.74 11.37L20.74 10.10L19.89 10.10L19.89 9.10L20.39 9.10L20.39 8.57L19.89 8.57L19.89 9.10L18.68 9.10L18.68 8.57L19.59 8.57L19.59 8.57Q19.58 7.38 19.58 6.74L19.58 6.74L19.58 5.91L19.58 5.91Q19.58 3.58 20.36 2.80L20.36 2.80L20.36 2.80Q21.08 1.95 22.75 1.95ZM21.55 5.32L21.55 5.32L21.57 5.32L21.55 5.35L21.55 6.23L20.82 6.23L20.82 6.56L21.55 6.56L21.55 6.56Q21.54 8.67 21.54 9.75L21.54 9.75L21.54 10.10L23.17 10.10L23.17 9.56L23.93 9.56L23.93 9.54L23.93 9.54Q23.93 8.54 23.91 6.75L23.91 6.75L23.91 6.75Q23.91 6.68 23.93 6.38L23.93 6.38L23.93 6.38Q23.93 4.45 23.70 4.01L23.70 4.01L23.70 4.01Q23.47 3.58 22.85 3.58L22.85 3.58L22.61 3.58L22.61 3.58Q21.86 3.58 21.68 4.24L21.68 4.24L21.68 4.24Q21.60 4.56 21.55 5.32ZM25.89 6.56L25.89 6.23L27.07 6.23L27.07 6.56L25.89 6.56ZM27.28 6.80L27.28 2.00L32.07 2.00L32.07 3.60L32.07 3.60Q32.07 3.63 32.03 3.63L32.03 3.63L29.19 3.63L29.19 5.74L31.74 5.74L31.74 5.76L31.74 5.76Q31.74 5.84 31.71 6.79L31.71 6.79L31.71 6.79Q31.69 6.79 31.69 6.80L31.69 6.80L31.81 6.80L31.81 7.29L29.60 7.29L29.60 9.29L29.00 9.29L29.00 9.49L29.60 9.49L29.60 10.10L32.10 10.10L32.10 10.32L31.90 10.32L31.90 11.52L28.91 11.52L28.91 11.73L27.49 11.73L27.49 8.24L27.28 8.24L27.28 7.01L25.72 7.01L25.72 6.80L27.28 6.80ZM28.09 6.80L27.29 6.80L27.29 7.01L28.09 7.01L28.09 6.80ZM36.17 1.96L36.17 1.96L36.17 1.96Q37.80 1.96 38.35 3.01L38.35 3.01L38.35 3.01Q38.73 3.80 38.73 4.56L38.73 4.56L38.72 4.56L38.72 4.56Q37.60 4.66 37.19 4.66L37.19 4.66L37.19 4.66Q37.19 4.12 36.86 3.75L36.86 3.75L36.86 3.75Q36.54 3.57 36.28 3.57L36.28 3.57L36.00 3.57L36.00 3.57Q35.31 3.57 35.16 4.11L35.16 4.11L35.16 4.11Q35.12 4.27 35.12 4.35L35.12 4.35L35.12 4.50L35.12 4.50Q35.12 5.26 35.93 5.61L35.93 5.61L35.93 5.61Q36.00 5.67 37.05 6.12L37.05 6.12L37.05 6.12Q37.61 6.38 38.09 6.76L38.09 6.76L38.09 6.77L36.37 6.77L36.37 6.97L38.64 6.97L38.64 7.24L38.92 7.24L38.92 10.21L38.36 10.21L38.36 11.73L34.02 11.73L34.02 10.21L32.99 10.21L32.99 9.18L33.57 9.18L33.57 8.83L32.99 8.83L32.99 8.59L34.98 8.59L34.98 10.21L37.02 10.21L37.02 7.77L35.49 7.77L35.49 6.97L33.60 6.97L33.60 6.77L34.51 6.77L34.51 6.76L34.51 6.76Q33.31 5.96 33.31 4.50L33.31 4.50L33.31 4.37L33.31 4.37Q33.31 3.14 34.06 2.51L34.06 2.51L34.06 2.51Q34.75 1.96 36.17 1.96ZM38.64 6.97L38.64 6.77L39.33 6.77L39.33 6.97L38.64 6.97ZM32.33 9.18L32.33 8.83L32.99 8.83L32.99 9.18L32.33 9.18ZM39.43 10.60L39.43 2.00L41.34 2.00L41.34 3.83L41.34 3.83Q41.34 4.74 41.31 5.80L41.31 5.80L41.31 5.82L41.33 5.82L41.33 5.82Q41.56 5.37 42.62 3.51L42.62 3.51L42.62 3.51Q43.16 2.57 43.16 2.09L43.16 2.09L43.16 2.00L45.12 2.00L45.12 2.04L45.12 2.04Q45.12 2.98 44.36 4.09L44.36 4.09L43.20 5.78L44.34 8.21L45.37 8.21L45.37 8.50L44.21 8.50L44.21 8.52L44.21 8.52Q44.49 9.13 44.57 9.24L44.57 9.24L44.78 9.24L44.78 10.12L45.08 10.12L45.08 11.72L45.08 11.72Q44.58 11.73 44.34 11.73L44.34 11.73L43.87 11.73L43.87 11.73Q43.61 11.73 43.18 11.72L43.18 11.72L43.18 10.65L42.75 10.65L42.75 9.24L42.51 9.24L42.25 8.50L44.19 8.50L44.19 8.21L42.41 8.21L42.41 8.21Q42.41 8.18 42.10 7.23L42.10 7.23L42.08 7.23L42.08 7.23Q41.92 7.54 41.43 8.21L41.43 8.21L42.25 8.21L42.25 8.50L41.34 8.50L41.34 8.98L41.23 8.98L41.23 11.20L41.34 11.20L41.34 11.70L41.34 11.70Q41.34 11.73 41.31 11.73L41.31 11.73L39.46 11.73L39.46 11.73Q39.43 11.73 39.43 11.70L39.43 11.70L39.43 10.93L40.30 10.93L40.30 10.60L39.43 10.60ZM41.41 8.21L40.22 8.21L40.22 8.50L41.33 8.50L41.33 8.50Q41.33 8.45 41.41 8.21L41.41 8.21ZM46.22 1.93L46.22 1.93L48.06 1.93L48.06 1.93Q48.09 1.94 48.09 1.97L48.09 1.97L48.09 6.73L48.09 6.73Q48.09 6.76 48.06 6.76L48.06 6.76L47.84 6.76L47.84 11.70L47.84 11.70Q47.84 11.73 47.81 11.73L47.81 11.73L46.22 11.73L46.22 11.73Q46.18 11.73 46.18 11.70L46.18 11.70L46.18 6.64L45.69 6.64L45.69 6.64Q45.66 6.64 45.66 6.61L45.66 6.61L45.66 6.40L45.66 6.40Q45.66 6.36 45.69 6.36L45.69 6.36L46.18 6.36L46.18 1.97L46.18 1.97Q46.19 1.93 46.22 1.93ZM47.14 6.36L46.20 6.36L46.20 6.64L47.14 6.64L47.14 6.36Z"></path></g><!----><!----></svg>